<svg xmlns="http://www.w3.org/2000/svg" version="1.1" xmlns:xlink="http://www.w3.org/1999/xlink" xmlns:svgjs="http://svgjs.dev/svgjs" width="1500" height="1970" viewBox="0 0 1500 1970"><g transform="matrix(1,0,0,1,0.9575875726256982,0.797570850202419)"><svg viewBox="0 0 188 247" data-background-color="#ffffff" preserveAspectRatio="xMidYMid meet" height="1970" width="1500" xmlns="http://www.w3.org/2000/svg" xmlns:xlink="http://www.w3.org/1999/xlink"><g id="tight-bounds" transform="matrix(1,0,0,1,-0.12001764243575508,-0.09999999999999432)"><svg viewBox="0 0 188.24003528487148 247.2" height="247.2" width="188.24003528487148"><g><svg viewBox="0 0 397.4975999999999 522.0005753361494" height="247.2" width="188.24003528487148"><g><rect width="397.4975999999999" height="16.02094236814332" x="0" y="249.3961036259632" fill="#8d021f" opacity="1" stroke-width="0" stroke="transparent" fill-opacity="1" class="rect-qz-0" data-fill-palette-color="primary" rx="1%" id="qz-0" data-palette-color="#8d021f"></rect></g><g><rect width="397.4975999999999" height="16.02094236814332" x="0" y="286.3868658476972" fill="#8d021f" opacity="1" stroke-width="0" stroke="transparent" fill-opacity="1" class="rect-qz-1" data-fill-palette-color="primary" rx="1%" id="qz-1" data-palette-color="#8d021f"></rect></g><g transform="matrix(1,0,0,1,0.9887999999999693,344.347447923022)"><svg viewBox="0 0 395.52 177.65312741312738" height="177.65312741312738" width="395.52"><g id="textblocktransform"><svg viewBox="0 0 395.52 177.65312741312738" height="177.65312741312738" width="395.52" id="textblock"><g><svg viewBox="0 0 395.52 177.65312741312738" height="177.65312741312738" width="395.52"><g transform="matrix(1,0,0,1,0,0)"><svg width="395.52" viewBox="1.6 -34.9 77.7 34.9" height="177.65312741312738" data-palette-color="#8d021f"><path d="M9.3 0L9.3-2.7 13.95-2.7 13.95-31.95 6.15-31.95 6.15-26.1 1.6-26.1 1.6-34.9 32.25-34.9 32.25-26.1 27.7-26.1 27.7-31.95 19.9-31.95 19.9-2.7 24.55-2.7 24.55 0 9.3 0ZM46.2 0L46.2-2.7 48.8-2.7 59.9-34.9 65.6-34.9 76.7-2.7 79.3-2.7 79.3 0 66.25 0 66.25-2.7 70.55-2.7 67.75-11.05 55.1-11.05 52.3-2.7 56.6-2.7 56.6 0 46.2 0ZM61.3-30.2L55.9-13.9 66.95-13.9 61.55-30.2 61.3-30.2Z" opacity="1" transform="matrix(1,0,0,1,0,0)" fill="#8d021f" class="wordmark-text-0" data-fill-palette-color="primary" id="text-0"></path></svg></g></svg></g></svg></g></svg></g><g transform="matrix(1,0,0,1,76.53311999999997,0)"><svg viewBox="0 0 244.43135999999998 207.45646391878174" height="207.45646391878174" width="244.43135999999998"><g><svg xmlns="http://www.w3.org/2000/svg" xmlns:xlink="http://www.w3.org/1999/xlink" version="1.1" x="0" y="0" viewBox="0.1646825396825397 4 49.83630952380953 42.29761904761906" enable-background="new 0 0 50.4 50.4" xml:space="preserve" width="244.43135999999998" height="207.45646391878174" class="icon-icon-0" data-fill-palette-color="accent" id="icon-0"><g fill="#8d021f" data-fill-palette-color="accent"><rect x="0.166" y="31.438" width="3.515" height="3.518" fill="#8d021f" data-fill-palette-color="accent"></rect><rect x="5.93" y="31.438" width="3.515" height="3.518" fill="#8d021f" data-fill-palette-color="accent"></rect><rect x="11.834" y="31.438" width="3.516" height="3.518" fill="#8d021f" data-fill-palette-color="accent"></rect><rect x="17.599" y="31.438" width="3.514" height="3.518" fill="#8d021f" data-fill-palette-color="accent"></rect><rect x="23.502" y="31.438" width="3.515" height="3.518" fill="#8d021f" data-fill-palette-color="accent"></rect><rect x="29.267" y="31.438" width="3.515" height="3.518" fill="#8d021f" data-fill-palette-color="accent"></rect><rect x="35.17" y="31.438" width="3.517" height="3.518" fill="#8d021f" data-fill-palette-color="accent"></rect><rect x="40.937" y="31.438" width="3.515" height="3.518" fill="#8d021f" data-fill-palette-color="accent"></rect><rect x="0.166" y="37.269" width="3.515" height="3.514" fill="#8d021f" data-fill-palette-color="accent"></rect><rect x="5.93" y="37.269" width="3.515" height="3.514" fill="#8d021f" data-fill-palette-color="accent"></rect><rect x="11.834" y="37.269" width="3.516" height="3.514" fill="#8d021f" data-fill-palette-color="accent"></rect><rect x="17.599" y="37.269" width="3.514" height="3.514" fill="#8d021f" data-fill-palette-color="accent"></rect><rect x="23.502" y="37.269" width="3.515" height="3.514" fill="#8d021f" data-fill-palette-color="accent"></rect><rect x="29.267" y="37.269" width="3.515" height="3.514" fill="#8d021f" data-fill-palette-color="accent"></rect><rect x="35.17" y="37.269" width="3.517" height="3.514" fill="#8d021f" data-fill-palette-color="accent"></rect><rect x="40.937" y="37.269" width="3.515" height="3.514" fill="#8d021f" data-fill-palette-color="accent"></rect><rect x="0.166" y="43.154" width="3.515" height="3.514" fill="#8d021f" data-fill-palette-color="accent"></rect><rect x="5.93" y="43.154" width="3.515" height="3.514" fill="#8d021f" data-fill-palette-color="accent"></rect><rect x="11.834" y="43.154" width="26.853" height="3.514" fill="#8d021f" data-fill-palette-color="accent"></rect><rect x="40.937" y="43.154" width="3.515" height="3.514" fill="#8d021f" data-fill-palette-color="accent"></rect><rect x="46.887" y="31.438" width="3.514" height="3.518" fill="#8d021f" data-fill-palette-color="accent"></rect><rect x="46.887" y="37.269" width="3.514" height="3.514" fill="#8d021f" data-fill-palette-color="accent"></rect><rect x="46.887" y="43.154" width="3.514" height="3.514" fill="#8d021f" data-fill-palette-color="accent"></rect><rect x="6" y="4.032" width="38.521" height="24.06" fill="#8d021f" data-fill-palette-color="accent"></rect></g></svg></g></svg></g><g></g></svg></g><defs></defs></svg><rect width="188.24003528487148" height="247.2" fill="none" stroke="none" visibility="hidden"></rect></g></svg></g></svg>